<?xml version="1.0" standalone="no"?>
<!DOCTYPE svg PUBLIC "-//W3C//DTD SVG 20010904//EN"
 "http://www.w3.org/TR/2001/REC-SVG-20010904/DTD/svg10.dtd">
<svg version="1.0" xmlns="http://www.w3.org/2000/svg"
 width="16.000000pt" height="16.000000pt" viewBox="0 0 16.000000 16.000000"
 preserveAspectRatio="xMidYMid meet">
<metadata>
Created by potrace 1.11, written by Peter Selinger 2001-2013
</metadata>
<g transform="translate(0.000000,16.000000) scale(0.003125,-0.003125)"
fill="#000000" stroke="none">
<path d="M2321 5110 c-766 -75 -1462 -491 -1893 -1135 -156 -233 -302 -572
-362 -840 -49 -218 -60 -325 -60 -575 0 -250 11 -357 60 -575 81 -362 282
-768 522 -1055 240 -287 515 -503 847 -666 255 -125 484 -196 775 -241 161
-24 539 -24 700 0 291 45 520 116 775 241 518 254 917 653 1171 1171 125 255
196 484 241 775 24 161 24 539 0 700 -45 291 -116 520 -241 775 -254 518 -653
917 -1171 1171 -253 123 -486 196 -765 239 -126 19 -468 27 -599 15z m423
-361 c169 -56 308 -192 371 -361 l17 -47 82 6 c227 16 436 -129 500 -346 9
-30 16 -71 16 -92 l0 -37 -717 -3 c-395 -2 -922 -2 -1170 0 l-453 3 0 37 c0
21 7 62 16 92 64 217 273 362 500 346 l82 -6 17 47 c71 192 229 331 430 378
84 19 222 12 309 -17z m-819 -3474 c63 -62 -2 -162 -86 -133 -58 20 -70 100
-21 138 34 27 77 25 107 -5z m402 -311 c12 -7 24 -27 28 -43 18 -82 -83 -136
-140 -75 -29 31 -32 70 -9 102 29 42 71 48 121 16z"/>
</g>
</svg>
